<?xml version="1.0" encoding="utf-8"?><svg viewBox="0 0 502.66 502.66" xmlns="http://www.w3.org/2000/svg" xmlns:xlink="http://www.w3.org/1999/xlink"><style>:root>svg{display:none}:root>svg:target{display:block}</style><svg viewBox="0 0 49.363 49.363" id="camera-icon" xmlns="http://www.w3.org/2000/svg"><path d="M44.343 11.853H5.018C2.251 11.853 0 14.087 0 16.833v22.22c0 2.746 2.251 4.98 5.018 4.98h39.326c2.767.001 5.019-2.234 5.019-4.98v-22.22c0-2.746-2.252-4.98-5.02-4.98zm2.943 27.201c0 1.6-1.32 2.903-2.942 2.903H5.018c-1.622 0-2.941-1.303-2.941-2.903v-22.22c0-1.601 1.319-2.903 2.941-2.903h39.326c1.622 0 2.942 1.303 2.942 2.903v22.22zM36.734 18.823a2 2 0 012-2h2.5a2 2 0 010 4h-2.5c-1.103 0-2-.896-2-2zM15.216 6.589a1.26 1.26 0 00-1.258-1.259H6.075a1.26 1.26 0 00-1.258 1.259v4.023h10.399V6.589zm-1.382 2.638H6.2V6.712h7.634v2.515zm1.257 6.463c-6.481 0-11.753 5.272-11.753 11.753S8.61 39.196 15.091 39.196s11.752-5.272 11.752-11.753S21.572 15.69 15.091 15.69zm0 21.539c-5.396 0-9.787-4.39-9.787-9.786s4.39-9.786 9.787-9.786 9.787 4.39 9.787 9.786-4.39 9.786-9.787 9.786zm1.529-16.852a.656.656 0 01-.656.656c-3.897 0-7.067 3.17-7.067 7.066a.656.656 0 01-1.311 0c0-4.619 3.759-8.378 8.378-8.378.363 0 .656.293.656.656zm25.133 6.567h-9c-1.93 0-3.5 1.57-3.5 3.5v3.334c0 1.93 1.57 3.5 3.5 3.5h9c1.93 0 3.5-1.57 3.5-3.5v-3.334c0-1.93-1.57-3.5-3.5-3.5zm2.5 6.834c0 1.379-1.121 2.5-2.5 2.5h-9a2.502 2.502 0 01-2.5-2.5v-3.334c0-1.379 1.121-2.5 2.5-2.5h9c1.379 0 2.5 1.121 2.5 2.5v3.334z"/></svg><svg viewBox="0 0 16 14" id="cart-icon" xmlns="http://www.w3.org/2000/svg"><path d="M13.587 10.443a.676.676 0 00.679-.69.675.675 0 00-.679-.682H5.799c-.287 0-.473-.209-.514-.522l-.11-.71h8.487c1.083 0 1.66-.661 1.817-1.761l.494-3.363c.013-.097.027-.216.027-.3 0-.452-.295-.765-.836-.765H4.305L4.21.975C4.12.327 3.846 0 3.037 0H.734a.75.75 0 000 1.497h2.035l1.036 7.198c.157 1.086.733 1.748 1.816 1.748h7.966zM6.19 14c.693 0 1.248-.564 1.248-1.267s-.555-1.267-1.248-1.267c-.692 0-1.247.564-1.247 1.267S5.498 14 6.19 14zm6.286 0c.693 0 1.248-.564 1.248-1.267s-.555-1.267-1.248-1.267c-.692 0-1.254.564-1.254 1.267S11.784 14 12.476 14z"/></svg><svg viewBox="0 0 24 24" id="fb" xmlns="http://www.w3.org/2000/svg"><path d="M22.645 0H1.355C.58 0 0 .62 0 1.355v21.29C0 23.42.62 24 1.355 24h11.458v-9.329H9.716v-3.6h3.097V8.4c0-3.097 1.858-4.8 4.645-4.8.93 0 1.858.039 2.787.155v3.213h-1.858c-1.47 0-1.78.697-1.78 1.742v2.283h3.522l-.503 3.64h-3.097v9.212h6.116c.774 0 1.355-.58 1.355-1.355V1.355C23.961.58 23.342 0 22.645 0z"/></svg><svg viewBox="0 0 502.664 502.664" id="icon" xmlns="http://www.w3.org/2000/svg"><path d="M153.821 358.226L0 274.337v-46.463l153.821-83.414v54.574L46.636 250.523l107.185 53.431v54.272zm26.273 29.358L282.103 115.08h32.227L212.084 387.584h-31.99zm168.749-29.358v-54.272l107.164-52.999-107.164-52.59v-53.927l153.821 83.522v46.183l-153.821 84.083z"/></svg><svg viewBox="0 0 24 24" id="insta" xmlns="http://www.w3.org/2000/svg"><path d="M13.894.001c1.648.003 2.118.017 3.158.076 1.318.04 2.17.233 2.945.542.776.31 1.434.697 2.093 1.355s1.085 1.316 1.357 2.13c.27.812.503 1.702.542 2.941.039 1.316-.039 1.742-.039 5.032v2.279a74.804 74.804 0 01-.038 2.638c-.04 1.316-.272 2.167-.543 2.942a5.524 5.524 0 01-1.356 2.128c-.66.659-1.318 1.084-2.132 1.355-.814.271-1.628.504-2.945.542-.352.01-.634.018-.922.024l-.218.003c-.369.006-.775.01-1.364.01l-.376.001H10.32c-1.817-.002-2.251-.014-3.305-.076-1.318-.04-2.17-.271-2.946-.542a5.531 5.531 0 01-2.131-1.355c-.66-.658-1.085-1.316-1.357-2.13-.271-.812-.504-1.625-.542-2.941a106.46 106.46 0 01-.02-.705l-.006-.324a88.99 88.99 0 01-.011-1.3L0 14.273V11.38c.004-2.721.04-3.106.076-4.335C.117 5.73.31 4.877.62 4.103c.271-.813.698-1.47 1.356-2.129.66-.658 1.318-1.122 2.132-1.393C4.922.31 5.736.077 7.053.039 7.976.012 8.423.003 9.74 0h4.155zm.198 2.206h-4.079c-.853.001-1.36.005-1.82.013l-.209.004c-.243.005-.486.012-.776.021-1.201.039-1.821.271-2.247.426-.543.232-.93.464-1.357.89-.387.387-.659.813-.891 1.355-.155.465-.388 1.084-.426 2.245-.01.29-.016.532-.022.775l-.004.21c-.008.423-.01.887-.012 1.626v.61l-.001.23V16.8c.039 1.2.271 1.82.426 2.245.271.542.504.93.93 1.355.388.426.814.697 1.357.929.465.155 1.085.387 2.247.426a72.98 72.98 0 002.574.037l.62.001h6.456c1.202-.038 1.822-.27 2.248-.425.543-.271.93-.503 1.356-.93.427-.386.698-.812.93-1.354.156-.465.388-1.084.427-2.245l.023-.67.007-.21c.026-.766.047-1.603.047-3.959V9.772a72.309 72.309 0 00-.038-2.61c-.04-1.2-.272-1.82-.427-2.246-.271-.542-.504-.929-.93-1.355-.387-.387-.814-.658-1.356-.89-.465-.155-1.085-.387-2.248-.426a72.79 72.79 0 00-.776-.021l-.21-.004a99.213 99.213 0 00-1.819-.013zm-2.078 3.638c3.45 0 6.2 2.71 6.2 6.155 0 3.445-2.828 6.155-6.2 6.155-3.372 0-6.162-2.71-6.162-6.155a6.15 6.15 0 016.162-6.155zm0 2.13c-2.21 0-4.03 1.819-4.03 4.025a4.025 4.025 0 004.03 4.026A4 4 0 0016.044 12a4 4 0 00-4.03-4.026zm6.472-3.833a1.433 1.433 0 11.002 2.866 1.433 1.433 0 01-.002-2.866z"/></svg><svg viewBox="0 0 24 24" id="linked" xmlns="http://www.w3.org/2000/svg"><path d="M22.322 0H1.75C.778 0 0 .774 0 1.742v20.516C0 23.188.778 24 1.75 24h20.495c.972 0 1.75-.774 1.75-1.742V1.703C24.072.774 23.295 0 22.322 0zM7.117 20.4h-3.54V8.98h3.54V20.4zM5.327 7.394a2.045 2.045 0 01-2.06-2.052 2.07 2.07 0 012.06-2.052A2.07 2.07 0 017.39 5.342c0 1.123-.856 2.052-2.061 2.052zM20.535 20.4h-3.54v-5.535c0-1.317-.038-3.059-1.866-3.059-1.867 0-2.139 1.471-2.139 2.942V20.4H9.45V8.98h3.461v1.588h.04c.505-.93 1.632-1.858 3.383-1.858 3.616 0 4.277 2.322 4.277 5.496V20.4h-.078z"/></svg><svg viewBox="0 0 16 16" id="location-icon" xmlns="http://www.w3.org/2000/svg"><path d="M9.845 15.073L15.79 2.12c.705-1.527-.47-2.592-1.96-1.91L.862 6.2c-1.345.617-1.061 2.527.47 2.535l5.815.016c.098 0 .114.008.114.114l.016 5.81c0 1.511 1.903 1.845 2.568.398z"/></svg><svg viewBox="0 0 16 16" id="person-icon" xmlns="http://www.w3.org/2000/svg"><path d="M8.004 7.775c1.913 0 3.505-1.728 3.505-3.94C11.509 1.675 9.908 0 8.004 0 6.101 0 4.483 1.701 4.491 3.852c0 2.195 1.601 3.923 3.513 3.923zM13.724 16c1.004 0 1.61-.494 1.61-1.305 0-2.265-2.848-5.368-7.338-5.368-4.483 0-7.33 3.103-7.33 5.368 0 .811.606 1.305 1.61 1.305h11.448z"/></svg><svg viewBox="0 0 28 28" id="products-1" xmlns="http://www.w3.org/2000/svg"><path d="M26.52 3.733c-.238-.093-5.925-1.866-9.433-.046-1.99 1.026-3.507 2.473-4.265 4.06-.285-1.494-1.09-3.034-2.323-4.434C7.939.42 1.968 0 1.731 0a.514.514 0 00-.522.42c0 .233-.521 6.02 2.086 8.96 1.848 2.053 4.123 3.22 6.02 3.22.852 0 1.61-.233 2.227-.7-.711 2.24-1.707 7.467-.095 15.727.047.233.237.373.474.373h.095a.484.484 0 00.379-.56c-1.943-9.8 0-15.213.427-16.24.71 1.26 2.227 1.913 4.076 1.913 1.422 0 3.033-.373 4.597-1.213 3.508-1.773 5.261-7.327 5.309-7.56.094-.28-.048-.513-.285-.607zM4.005 8.773C2.062 6.627 2.062 2.38 2.11.98c1.422.14 5.735.793 7.678 2.94 1.47 1.633 2.275 3.64 2.18 5.227-.047.793-.379 1.446-.853 1.866-1.611 1.354-4.787.327-7.11-2.24zm17.063 2.287c-3.081 1.587-6.494 1.4-7.49-.42-.33-.56-.33-1.26-.094-2.053.474-1.54 2.038-3.127 4.029-4.107.995-.513 2.227-.7 3.46-.7 1.99 0 3.934.467 4.787.7-.474 1.353-2.086 5.273-4.692 6.58z"/></svg><svg viewBox="0 0 26 28" id="products-2" xmlns="http://www.w3.org/2000/svg"><path d="M20.38 0c.235 0 .423.14.47.373a5.37 5.37 0 004.466 4.434c.188 0 .376.233.517.466v4.294c0 4.013-1.269 7.933-3.572 11.246a20.035 20.035 0 01-9.073 7.14C13.094 28 13.047 28 13 28c-.094 0-.141-.047-.188-.047a20.035 20.035 0 01-9.073-7.14A19.284 19.284 0 01.167 9.567V5.273c0-.233.14-.42.376-.466C2.799 4.48 4.633 2.613 5.009.373A.505.505 0 015.479 0H20.38zm-.423.887H5.855c-.517 2.38-2.398 4.2-4.795 4.76V9.52c0 3.873 1.175 7.56 3.384 10.733 2.116 3.034 5.03 5.32 8.462 6.72 3.432-1.353 6.346-3.686 8.461-6.72 2.21-3.173 3.385-6.86 3.385-10.733V5.647c-2.397-.56-4.278-2.38-4.795-4.76zm-2.914 8.866c.188-.186.517-.14.61.094.189.186.142.513-.046.653l-6.44 5.18a.506.506 0 01-.282.093h-.047c-.141 0-.235-.093-.33-.186l-2.444-3.36c-.14-.234-.094-.514.094-.654.235-.14.517-.093.658.094l2.163 2.94 6.064-4.854z"/></svg><svg viewBox="0 0 28 28" id="products-3" xmlns="http://www.w3.org/2000/svg"><path d="M14.793 11.32l.084.006c.11.016.215.068.29.179l4.76 6.746 1.213-1.895c.093-.138.233-.23.373-.23.14 0 .28.046.374.184l4.246 6.1h1.4c.28 0 .467.184.467.461s-.187.462-.467.462H.467c-.28 0-.467-.184-.467-.462 0-.277.187-.462.467-.462H1.82L7 13.492a.491.491 0 01.42-.231.49.49 0 01.42.23l2.473 3.974 4.107-5.96c.093-.093.233-.185.373-.185zm-.046 1.34l-4.154 5.96c-.046.093-.233.185-.373.185-.14 0-.28-.092-.373-.23L7.42 14.646l-4.527 7.808H24.92l-3.5-4.99-1.213 1.895c-.094.138-.234.23-.374.23a.426.426 0 01-.373-.184l-4.713-6.746zm8.586-7.993c1.68 0 3.034 1.34 3.034 3.003s-1.354 3.003-3.034 3.003c-1.68 0-3.033-1.34-3.033-3.003s1.353-3.003 3.033-3.003zm0 .924c-1.166 0-2.1.924-2.1 2.079 0 1.155.934 2.08 2.1 2.08 1.167 0 2.1-.925 2.1-2.08s-.933-2.08-2.1-2.08z"/></svg><svg viewBox="0 0 28 28" id="products-4" xmlns="http://www.w3.org/2000/svg"><path d="M25.527 3.988H9.24a4.793 4.793 0 00-4.387-2.821C2.147 1.213 0 3.34 0 5.977v16.047c0 2.636 2.147 4.81 4.853 4.81h20.674c1.4 0 2.473-1.11 2.473-2.452V6.485a2.488 2.488 0 00-2.473-2.497zM.933 5.976c0-2.127 1.727-3.884 3.92-3.884 2.194 0 3.92 1.71 3.92 3.884v13.227a4.83 4.83 0 00-3.92-1.989 4.896 4.896 0 00-3.92 1.989V5.976zm0 16.094c0-2.127 1.727-3.885 3.92-3.885 2.194 0 3.92 1.712 3.92 3.885 0 2.174-1.726 3.885-3.92 3.885-2.193 0-3.92-1.758-3.92-3.885zm26.134 2.312c0 .833-.7 1.526-1.54 1.526H7.7c1.213-.878 2.007-2.266 2.007-3.884V5.976c0-.37-.047-.74-.14-1.063h15.96c.84 0 1.54.693 1.54 1.572v17.897z"/></svg><svg viewBox="0 0 28 28" id="products-5" xmlns="http://www.w3.org/2000/svg"><path d="M23.854 0c1.65 0 2.98 1.395 2.98 3.07v18.65c0 .094 0 .14-.046.233l-3.346 5.582c-.184.279-.459.465-.78.465-.32 0-.595-.186-.779-.465l-3.345-5.582c-.046-.046-.046-.139-.046-.232V3.07c0-1.675 1.375-3.07 3.025-3.07h2.337zM9.646.093c1.237 0 2.291 1.023 2.291 2.326v23.209c0 1.302-1.008 2.325-2.291 2.325H3.458c-1.283 0-2.291-1.023-2.291-2.325V2.418c0-1.302 1.008-2.325 2.291-2.325h6.188zm16.27 5.86h-6.508v15.628l3.255 5.489 3.254-5.489V5.953zm-16.27-4.93H3.458c-.779 0-1.375.605-1.375 1.396v1.628h3.942c.275 0 .458.186.458.465s-.183.465-.458.465H2.083v3.628h1.559c.275 0 .458.186.458.465s-.183.465-.458.465H2.083v3.628h3.942c.275 0 .458.186.458.465s-.183.465-.458.465H2.083v3.628h1.559c.275 0 .458.186.458.465 0 .28-.183.465-.458.465H2.083v3.628h3.942c.275 0 .458.186.458.465 0 .28-.183.465-.458.465H2.083v2.372c0 .791.596 1.396 1.375 1.396h6.188c.779 0 1.375-.605 1.375-1.396V2.42c0-.791-.596-1.396-1.375-1.396zM23.854.93h-2.337c-1.146 0-2.109.977-2.109 2.14v1.953h6.509V3.07c0-1.163-.917-2.14-2.063-2.14z"/></svg><svg viewBox="0 0 28 28" id="products-6" xmlns="http://www.w3.org/2000/svg"><path d="M10.967 0c2.94 0 5.693 1.12 7.746 3.22 4.2 4.153 4.294 10.873.327 15.167l8.82 8.82a.451.451 0 010 .653.504.504 0 01-.327.14.504.504 0 01-.326-.14l-8.82-8.82c-2.054 1.867-4.667 2.893-7.42 2.893-2.94 0-5.694-1.166-7.747-3.22-4.293-4.246-4.293-11.246 0-15.493C5.273 1.12 8.027 0 10.967 0zm0 .933a9.956 9.956 0 00-7.094 2.94 10.027 10.027 0 000 14.187A9.956 9.956 0 0010.967 21c2.706 0 5.18-1.073 7.093-2.94l.23-.238a10.027 10.027 0 00-.23-13.949 9.956 9.956 0 00-7.093-2.94zm0 6.394c3.22 0 5.74 2.8 5.833 2.94.14.186.14.466 0 .606-.093.094-2.613 2.94-5.833 2.94s-5.74-2.8-5.834-2.94a.49.49 0 010-.606c.094-.094 2.614-2.94 5.834-2.94zm0 .933c-2.194 0-4.107 1.633-4.807 2.333.7.7 2.613 2.334 4.807 2.334 2.193 0 4.106-1.634 4.806-2.334-.7-.7-2.613-2.333-4.806-2.333zm0 1.307c.56 0 1.026.466 1.026 1.026s-.466 1.027-1.026 1.027-1.027-.467-1.027-1.027c0-.56.467-1.026 1.027-1.026z"/></svg><svg viewBox="0 0 24 21" id="twitter" xmlns="http://www.w3.org/2000/svg"><path d="M7.471 20.165c9.136 0 14.09-7.549 14.09-14.09 0-.156 0-.427-.038-.659A10.35 10.35 0 0024 2.861a9.32 9.32 0 01-2.826.774A4.792 4.792 0 0023.342.887c-.968.542-1.974.968-3.174 1.2C19.238 1.12 18 .5 16.568.5a5.006 5.006 0 00-4.994 4.994c0 .387.039.774.116 1.16C7.703 6.385 4.065 4.41 1.587 1.43 1.161 2.203.93 3.016.93 3.906c0 1.742.89 3.213 2.245 4.104A5.384 5.384 0 01.93 7.39v.039c0 2.361 1.703 4.413 3.948 4.877-.425.117-.89.155-1.238.155a3.58 3.58 0 01-.93-.116c.659 1.974 2.478 3.407 4.646 3.445-1.703 1.317-3.832 2.13-6.116 2.13-.465.077-.852 0-1.239-.04 2.09 1.472 4.684 2.285 7.471 2.285z"/></svg></svg>